<svg width="862" height="353" xmlns="http://www.w3.org/2000/svg" xmlns:xlink="http://www.w3.org/1999/xlink" xml:space="preserve" overflow="hidden"><defs><filter id="fx0" x="-10%" y="-10%" width="120%" height="120%" filterUnits="userSpaceOnUse" primitiveUnits="userSpaceOnUse"><feComponentTransfer color-interpolation-filters="sRGB"><feFuncR type="discrete" tableValues="0.082353 0.082353"/><feFuncG type="discrete" tableValues="0.376471 0.376471"/><feFuncB type="discrete" tableValues="0.509804 0.509804"/><feFuncA type="linear" slope="1.000000" intercept="0.000000"/></feComponentTransfer><feGaussianBlur stdDeviation="0.000000 0.000000"/></filter><filter id="fx1" x="-10%" y="-10%" width="120%" height="120%" filterUnits="userSpaceOnUse" primitiveUnits="userSpaceOnUse"><feComponentTransfer color-interpolation-filters="sRGB"><feFuncR type="discrete" tableValues="0.082353 0.082353"/><feFuncG type="discrete" tableValues="0.376471 0.376471"/><feFuncB type="discrete" tableValues="0.509804 0.509804"/><feFuncA type="linear" slope="1.000000" intercept="0.000000"/></feComponentTransfer><feGaussianBlur stdDeviation="0.000000 0.000000"/></filter><linearGradient x1="1398" y1="2821" x2="2259" y2="2821" gradientUnits="userSpaceOnUse" spreadMethod="reflect" id="fill2"><stop offset="0" stop-color="#FF0000" stop-opacity="1"/><stop offset="0.16" stop-color="#FFC000" stop-opacity="1"/><stop offset="0.34" stop-color="#FFFF00" stop-opacity="1"/><stop offset="0.51" stop-color="#006600" stop-opacity="1"/><stop offset="0.67" stop-color="#0000CC" stop-opacity="1"/><stop offset="0.83" stop-color="#000099" stop-opacity="1"/><stop offset="1" stop-color="#6600CC" stop-opacity="1"/></linearGradient><clipPath id="clip3"><rect x="1.36023" y="0.570801" width="591.362" height="217.695"/></clipPath><linearGradient x1="1431.37" y1="2809.87" x2="2207.67" y2="2809.87" gradientUnits="userSpaceOnUse" spreadMethod="reflect" id="stroke4"><stop offset="0" stop-color="#FF0000" stop-opacity="1"/><stop offset="0.16" stop-color="#FFC000" stop-opacity="1"/><stop offset="0.34" stop-color="#FFFF00" stop-opacity="1"/><stop offset="0.51" stop-color="#006600" stop-opacity="1"/><stop offset="0.67" stop-color="#0000CC" stop-opacity="1"/><stop offset="0.83" stop-color="#000099" stop-opacity="1"/><stop offset="1" stop-color="#6600CC" stop-opacity="1"/></linearGradient><linearGradient x1="1431.37" y1="2809.87" x2="2207.67" y2="2809.87" gradientUnits="userSpaceOnUse" spreadMethod="reflect" id="fill5"><stop offset="0" stop-color="#FF0000" stop-opacity="1"/><stop offset="0.16" stop-color="#FFC000" stop-opacity="1"/><stop offset="0.34" stop-color="#FFFF00" stop-opacity="1"/><stop offset="0.51" stop-color="#006600" stop-opacity="1"/><stop offset="0.67" stop-color="#0000CC" stop-opacity="1"/><stop offset="0.83" stop-color="#000099" stop-opacity="1"/><stop offset="1" stop-color="#6600CC" stop-opacity="1"/></linearGradient><clipPath id="clip6"><rect x="0.598145" y="0.515137" width="146.797" height="183.857"/></clipPath><linearGradient x1="1431.37" y1="2809.87" x2="2207.67" y2="2809.87" gradientUnits="userSpaceOnUse" spreadMethod="reflect" id="stroke7"><stop offset="0" stop-color="#FF0000" stop-opacity="1"/><stop offset="0.16" stop-color="#FFC000" stop-opacity="1"/><stop offset="0.34" stop-color="#FFFF00" stop-opacity="1"/><stop offset="0.51" stop-color="#006600" stop-opacity="1"/><stop offset="0.67" stop-color="#0000CC" stop-opacity="1"/><stop offset="0.83" stop-color="#000099" stop-opacity="1"/><stop offset="1" stop-color="#6600CC" stop-opacity="1"/></linearGradient><linearGradient x1="1431.37" y1="2809.87" x2="2207.67" y2="2809.87" gradientUnits="userSpaceOnUse" spreadMethod="reflect" id="fill8"><stop offset="0" stop-color="#FF0000" stop-opacity="1"/><stop offset="0.16" stop-color="#FFC000" stop-opacity="1"/><stop offset="0.34" stop-color="#FFFF00" stop-opacity="1"/><stop offset="0.51" stop-color="#006600" stop-opacity="1"/><stop offset="0.67" stop-color="#0000CC" stop-opacity="1"/><stop offset="0.83" stop-color="#000099" stop-opacity="1"/><stop offset="1" stop-color="#6600CC" stop-opacity="1"/></linearGradient></defs><g transform="translate(-1397 -2644)"><g><rect x="1398" y="2647" width="861" height="348" fill="url(#fill2)"/><g clip-path="url(#clip3)" filter="url(#fx0)" transform="translate(1452 2726)"><g><g><path d="M270.678 84.4429C259.791 84.4429 250.309 88.8181 242.232 97.5685 233.921 106.727 229.438 117.123 228.784 128.754L309.35 128.754C308.489 114.264 304.597 103.04 297.676 95.0844 291.388 87.9901 282.388 84.4429 270.678 84.4429ZM486.56 72.3579 486.56 93.3589 489.341 91.1452C495.392 86.412 500.477 82.947 504.596 80.7503 514.135 75.5135 523.968 72.8951 534.095 72.8951 546.09 72.8951 555.407 76.6045 562.045 84.0233 568.656 91.4113 571.961 101.577 571.961 114.521L571.961 185.419C571.961 190.556 573.035 193.998 575.183 195.746 577.399 197.814 582.412 198.847 590.223 198.847L590.223 211.201 531.409 211.201 531.409 198.847C539.133 198.847 544.037 197.935 546.121 196.111 548.667 194.044 549.939 190.48 549.939 185.419L549.939 113.715C549.939 105.796 548.387 99.9561 545.282 96.1964 542.112 92.1205 536.682 90.0826 528.992 90.0826 520.913 90.0826 513.189 91.8785 505.821 95.4704 499.865 98.3574 493.445 102.842 486.56 108.923L486.56 185.419C486.56 190.556 487.825 194.152 490.354 196.208 492.365 197.967 497.277 198.847 505.091 198.847L505.091 211.201 446.277 211.201 446.277 198.847C454.18 198.847 459.267 197.787 461.539 195.667 463.539 193.935 464.539 190.519 464.539 185.419L464.539 104.853C464.539 99.7953 463.683 96.5418 461.971 95.0928 460.139 93.543 455.327 92.7681 447.536 92.7681L446.277 83.9352ZM406.066 72.3579 406.066 188.105C406.066 192.614 406.903 195.468 408.579 196.665 410.616 198.12 415.955 198.847 424.596 198.847L424.596 211.201 365.782 211.201 365.782 198.847C373.652 198.847 378.627 198.155 380.708 196.77 382.932 195.377 384.044 192.489 384.044 188.105L384.044 104.047C384.044 100.78 383.303 98.5183 381.82 97.2622 379.261 95.3403 373.982 94.3794 365.984 94.3794L364.708 85.92ZM270.947 72.3579C289.913 72.3579 304.095 77.9081 313.492 89.0083 326.486 101.644 332.983 119.279 332.983 141.914L228.784 141.914C228.784 161.689 233.797 178.25 243.823 191.596 251.499 197.504 262.241 200.459 276.049 200.459 286.344 200.459 295.027 198.693 302.099 195.163 310.928 190.332 319.327 183.324 327.297 174.14L334.594 179.897C327.265 191.669 319.284 200.277 310.651 205.721 300.046 212.418 287.259 215.766 272.29 215.766 252.159 215.766 235.877 209.079 223.442 195.704 211.427 182.394 205.419 165.001 205.419 143.525 205.419 123.313 211.059 107.35 222.338 95.6341 235.151 80.1167 251.354 72.3579 270.947 72.3579ZM395.323 3.07083C400.664 3.07085 404.763 4.59545 407.622 7.64466 411.06 11.0827 412.779 15.1082 412.779 19.7212 412.779 24.0041 411.055 27.8702 407.606 31.3194 404.783 34.3295 400.689 35.8345 395.323 35.8345 389.633 35.8345 385.068 33.8218 381.627 29.7962 379.3 27.3792 378.136 24.0209 378.136 19.7212 378.136 15.0915 379.3 11.5541 381.627 9.10912 385.093 5.08362 389.659 3.07085 395.323 3.07083ZM88.7235 3.07083C96.3745 3.07085 103.546 3.78 110.237 5.19829 113.737 5.86689 118.94 7.43905 125.847 9.91479L127.811 10.8589 149.06 4.41361 169.29 58.6533 160.856 62.1529C151.367 48.9154 141.981 38.618 132.699 31.2607 119.199 20.7031 104.809 15.4243 89.5292 15.4243 71.3122 15.4243 54.9402 24.4657 40.413 42.5484 32.3368 59.1204 28.2987 81.0524 28.2987 108.344 28.2987 133.935 35.1636 155.2 48.8935 172.139 61.7505 188.333 78.6975 196.43 99.7342 196.43 113.333 196.43 125.258 192.928 135.511 185.923 146.066 178.655 155.961 166.671 165.199 149.97L174.124 153.86C166.683 173.037 157.108 187.643 145.401 197.681 131.117 209.738 113.836 215.766 93.5575 215.766 67.6392 215.766 46.4541 206.431 30.0024 187.761 12.5743 167.947 3.86024 141.474 3.86024 108.344 3.86024 78.9347 12.1756 53.9592 28.8064 33.4175 43.3336 13.1864 63.3059 3.07085 88.7235 3.07083Z" stroke="#FF0000" stroke-width="5" stroke-linecap="butt" stroke-linejoin="round" stroke-miterlimit="10" stroke-opacity="1" fill="#FF0000" fill-rule="evenodd" fill-opacity="1"/></g></g></g><path d="M1713.77 2801.84C1702.88 2801.84 1693.4 2806.21 1685.32 2814.96 1677.01 2824.12 1672.53 2834.52 1671.87 2846.15L1752.44 2846.15C1751.58 2831.66 1747.69 2820.43 1740.76 2812.48 1734.48 2805.38 1725.48 2801.84 1713.77 2801.84ZM1929.65 2789.75 1929.65 2810.75 1932.43 2808.54C1938.48 2803.81 1943.57 2800.34 1947.68 2798.14 1957.22 2792.91 1967.06 2790.29 1977.18 2790.29 1989.18 2790.29 1998.5 2794 2005.13 2801.42 2011.74 2808.81 2015.05 2818.97 2015.05 2831.92L2015.05 2902.81C2015.05 2907.95 2016.12 2911.39 2018.27 2913.14 2020.49 2915.21 2025.5 2916.24 2033.31 2916.24L2033.31 2928.59 1974.5 2928.59 1974.5 2916.24C1982.22 2916.24 1987.13 2915.33 1989.21 2913.51 1991.75 2911.44 1993.03 2907.87 1993.03 2902.81L1993.03 2831.11C1993.03 2823.19 1991.48 2817.35 1988.37 2813.59 1985.2 2809.51 1979.77 2807.48 1972.08 2807.48 1964 2807.48 1956.28 2809.27 1948.91 2812.86 1942.95 2815.75 1936.53 2820.24 1929.65 2826.32L1929.65 2902.81C1929.65 2907.95 1930.91 2911.55 1933.44 2913.6 1935.45 2915.36 1940.37 2916.24 1948.18 2916.24L1948.18 2928.59 1889.37 2928.59 1889.37 2916.24C1897.27 2916.24 1902.36 2915.18 1904.63 2913.06 1906.63 2911.33 1907.63 2907.91 1907.63 2902.81L1907.63 2822.25C1907.63 2817.19 1906.77 2813.94 1905.06 2812.49 1903.23 2810.94 1898.42 2810.16 1890.62 2810.16L1889.37 2801.33ZM1849.15 2789.75 1849.15 2905.5C1849.15 2910.01 1849.99 2912.86 1851.67 2914.06 1853.7 2915.51 1859.04 2916.24 1867.68 2916.24L1867.68 2928.59 1808.87 2928.59 1808.87 2916.24C1816.74 2916.24 1821.72 2915.55 1823.8 2914.16 1826.02 2912.77 1827.13 2909.88 1827.13 2905.5L1827.13 2821.44C1827.13 2818.17 1826.39 2815.91 1824.91 2814.66 1822.35 2812.73 1817.07 2811.77 1809.07 2811.77L1807.8 2803.31ZM1714.04 2789.75C1733 2789.75 1747.18 2795.3 1756.58 2806.4 1769.57 2819.04 1776.07 2836.67 1776.07 2859.31L1671.87 2859.31C1671.87 2879.08 1676.89 2895.64 1686.91 2908.99 1694.59 2914.9 1705.33 2917.85 1719.14 2917.85 1729.43 2917.85 1738.12 2916.09 1745.19 2912.56 1754.02 2907.73 1762.42 2900.72 1770.39 2891.53L1777.68 2897.29C1770.35 2909.06 1762.37 2917.67 1753.74 2923.11 1743.13 2929.81 1730.35 2933.16 1715.38 2933.16 1695.25 2933.16 1678.97 2926.47 1666.53 2913.1 1654.52 2899.79 1648.51 2882.4 1648.51 2860.92 1648.51 2840.71 1654.15 2824.74 1665.43 2813.03 1678.24 2797.51 1694.44 2789.75 1714.04 2789.75ZM1838.41 2720.46C1843.75 2720.46 1847.85 2721.99 1850.71 2725.04 1854.15 2728.48 1855.87 2732.5 1855.87 2737.12 1855.87 2741.4 1854.14 2745.26 1850.69 2748.71 1847.87 2751.72 1843.78 2753.23 1838.41 2753.23 1832.72 2753.23 1828.16 2751.22 1824.72 2747.19 1822.39 2744.77 1821.22 2741.42 1821.22 2737.12 1821.22 2732.49 1822.39 2728.95 1824.72 2726.5 1828.18 2722.48 1832.75 2720.46 1838.41 2720.46ZM1531.81 2720.46C1539.46 2720.46 1546.63 2721.17 1553.33 2722.59 1556.83 2723.26 1562.03 2724.83 1568.94 2727.31L1570.9 2728.25 1592.15 2721.81 1612.38 2776.05 1603.94 2779.55C1594.46 2766.31 1585.07 2756.01 1575.79 2748.65 1562.29 2738.1 1547.9 2732.82 1532.62 2732.82 1514.4 2732.82 1498.03 2741.86 1483.5 2759.94 1475.43 2776.51 1471.39 2798.45 1471.39 2825.74 1471.39 2851.33 1478.25 2872.59 1491.98 2889.53 1504.84 2905.73 1521.79 2913.82 1542.82 2913.82 1556.42 2913.82 1568.35 2910.32 1578.6 2903.32 1589.15 2896.05 1599.05 2884.06 1608.29 2867.36L1617.21 2871.25C1609.77 2890.43 1600.2 2905.04 1588.49 2915.07 1574.21 2927.13 1556.92 2933.16 1536.65 2933.16 1510.73 2933.16 1489.54 2923.83 1473.09 2905.16 1455.66 2885.34 1446.95 2858.87 1446.95 2825.74 1446.95 2796.33 1455.26 2771.35 1471.89 2750.81 1486.42 2730.58 1506.39 2720.46 1531.81 2720.46Z" stroke="url(#stroke4)" stroke-width="5" stroke-linecap="butt" stroke-linejoin="round" stroke-miterlimit="10" fill="url(#fill5)" fill-rule="evenodd"/><text fill="#000000" fill-opacity="0" font-family="Arial,Arial_MSFontService,sans-serif" font-size="212.695" direction="ltr" writing-mode="lr-tb" x="1446.95" y="2906.57">Cein</text><g clip-path="url(#clip6)" filter="url(#fx1)" transform="translate(2060 2794)"><g><g><path d="M58.5882 129.773C46.439 132.335 37.3892 135.892 31.4391 140.444 27.0471 143.664 24.8511 147.447 24.8511 151.794 24.8511 156.785 29.0361 161.111 37.406 164.773 45.3116 168.116 57.5085 169.788 73.9966 169.788 86.9012 169.788 98.0574 167.818 107.465 163.879 114.515 160.718 118.04 157.048 118.04 152.869 118.04 148.717 116.428 145.299 113.206 142.613 108.506 138.638 101.893 136.042 93.3661 134.825L87.2313 133.801C81.7091 132.881 77.3158 132.239 74.0511 131.875 68.5122 130.983 63.3579 130.282 58.5882 129.773ZM69.4312 16.4429C59.159 16.4429 51.4114 19.7467 46.1886 26.3542 40.9154 32.8555 38.2788 40.9205 38.2788 50.5493 38.2788 60.2061 40.8231 68.1718 45.9116 74.4465 51.3107 81.4317 59.1506 84.9243 69.4312 84.9243 79.4656 84.9243 87.2565 81.3352 92.8038 74.157 97.8112 67.8152 100.315 59.946 100.315 50.5493 100.315 41.0073 97.7133 33.0276 92.5101 26.6102 87.1502 19.832 79.4572 16.4429 69.4312 16.4429ZM129.319 3.01516C132.928 3.01516 136.217 3.96769 139.188 5.87275 142.993 8.24499 144.895 11.2313 144.895 14.8316 144.895 18.3983 143.635 21.4419 141.114 23.9624 138.876 26.648 135.929 27.9908 132.273 27.9908 130.365 27.9908 128.527 27.5488 126.759 26.6648 126.043 26.3067 125.053 25.8115 123.788 25.1793 121.17 23.61 119.263 22.7498 118.069 22.5987 116.751 22.4336 115.309 22.7805 113.743 23.6393 116.386 26.4675 118.714 31.3631 120.725 38.3259 122.515 41.3583 123.411 45.5223 123.411 50.8179 123.411 64.8723 118.028 76.2243 107.264 84.874 97.2909 92.9642 84.68 97.0093 69.4312 97.0093 64.4741 97.0093 60.8682 96.8219 58.6135 96.447 55.4439 96.2708 52.1276 95.6525 48.6643 94.5923 45.3438 95.3868 42.3939 96.5211 39.8146 97.9954 38.4327 98.8234 37.7417 99.4683 37.7417 99.9298 37.5627 101.642 37.8312 102.838 38.5474 103.518 39.8538 105.115 42.1994 106.258 45.5843 106.946L78.1718 112.078 101.314 115.85C112.534 117.722 121.275 120.933 127.535 125.484 135.17 131.11 138.987 138.627 138.987 148.035 138.987 160.304 131.911 169.29 117.758 174.991 106.381 179.579 90.2721 181.873 69.4312 181.873 46.9789 181.873 29.8683 179.079 18.0995 173.493 8.09859 168.583 3.09815 160.903 3.09815 150.452 3.09815 143.363 7.66358 137.195 16.7945 131.947 25.4693 126.486 34.1526 123.575 42.8443 123.214 33.9232 122.84 27.0779 121.126 22.3082 118.074 17.5582 115.05 15.1831 111.162 15.1831 106.409 15.1831 101.625 18.5778 97.2751 25.3672 93.3586 28.8612 91.3277 33.5231 89.8185 39.353 88.831 32.3902 86.9203 26.6219 82.4374 22.0481 75.3823 17.2924 67.9634 14.9146 59.6858 14.9146 50.5493 14.9146 36.0726 20.3906 24.5317 31.3425 15.9268 40.8902 8.21424 53.5865 4.35794 69.4312 4.35794 78.3102 4.35794 86.3166 5.57763 93.45 8.017 99.2547 9.95283 103.373 12.4034 105.804 15.3687 108.316 11.8271 111.796 8.8954 116.244 6.57352 120.789 4.20129 125.148 3.01516 129.319 3.01516Z" stroke="#FF0000" stroke-width="5" stroke-linecap="butt" stroke-linejoin="round" stroke-miterlimit="10" stroke-opacity="1" fill="#FF0000" fill-rule="evenodd" fill-opacity="1"/></g></g></g><path d="M2109.68 2915.17C2097.53 2917.73 2088.48 2921.29 2082.53 2925.84 2078.14 2929.06 2075.94 2932.84 2075.94 2937.19 2075.94 2942.18 2080.12 2946.51 2088.49 2950.17 2096.4 2953.51 2108.6 2955.18 2125.08 2955.18 2137.99 2955.18 2149.15 2953.21 2158.55 2949.27 2165.6 2946.11 2169.13 2942.44 2169.13 2938.26 2169.13 2934.11 2167.52 2930.69 2164.29 2928.01 2159.59 2924.03 2152.98 2921.44 2144.45 2920.22L2138.32 2919.2C2132.8 2918.27 2128.4 2917.63 2125.14 2917.27 2119.6 2916.38 2114.45 2915.68 2109.68 2915.17ZM2120.52 2801.84C2110.25 2801.84 2102.5 2805.14 2097.28 2811.75 2092 2818.25 2089.37 2826.31 2089.37 2835.94 2089.37 2845.6 2091.91 2853.57 2097 2859.84 2102.4 2866.83 2110.24 2870.32 2120.52 2870.32 2130.55 2870.32 2138.34 2866.73 2143.89 2859.55 2148.9 2853.21 2151.4 2845.34 2151.4 2835.94 2151.4 2826.4 2148.8 2818.42 2143.6 2812 2138.24 2805.23 2130.55 2801.84 2120.52 2801.84ZM2180.41 2788.41C2184.02 2788.41 2187.31 2789.36 2190.28 2791.27 2194.08 2793.64 2195.98 2796.63 2195.98 2800.23 2195.98 2803.79 2194.72 2806.84 2192.2 2809.36 2189.96 2812.04 2187.02 2813.38 2183.36 2813.38 2181.45 2813.38 2179.62 2812.94 2177.85 2812.06 2177.13 2811.7 2176.14 2811.21 2174.88 2810.57 2172.26 2809 2170.35 2808.14 2169.16 2807.99 2167.84 2807.83 2166.4 2808.17 2164.83 2809.03 2167.47 2811.86 2169.8 2816.76 2171.81 2823.72 2173.6 2826.75 2174.5 2830.92 2174.5 2836.21 2174.5 2850.27 2169.12 2861.62 2158.35 2870.27 2148.38 2878.36 2135.77 2882.4 2120.52 2882.4 2115.56 2882.4 2111.96 2882.22 2109.7 2881.84 2106.53 2881.66 2103.22 2881.05 2099.75 2879.99 2096.43 2880.78 2093.48 2881.92 2090.9 2883.39 2089.52 2884.22 2088.83 2884.86 2088.83 2885.32 2088.65 2887.04 2088.92 2888.23 2089.64 2888.91 2090.94 2890.51 2093.29 2891.65 2096.67 2892.34L2129.26 2897.47 2152.4 2901.24C2163.62 2903.12 2172.36 2906.33 2178.62 2910.88 2186.26 2916.5 2190.08 2924.02 2190.08 2933.43 2190.08 2945.7 2183 2954.68 2168.85 2960.39 2157.47 2964.97 2141.36 2967.27 2120.52 2967.27 2098.07 2967.27 2080.96 2964.47 2069.19 2958.89 2059.19 2953.98 2054.19 2946.3 2054.19 2935.85 2054.19 2928.76 2058.75 2922.59 2067.88 2917.34 2076.56 2911.88 2085.24 2908.97 2093.93 2908.61 2085.01 2908.23 2078.17 2906.52 2073.4 2903.47 2068.65 2900.44 2066.27 2896.56 2066.27 2891.8 2066.27 2887.02 2069.67 2882.67 2076.46 2878.75 2079.95 2876.72 2084.61 2875.21 2090.44 2874.23 2083.48 2872.31 2077.71 2867.83 2073.14 2860.78 2068.38 2853.36 2066 2845.08 2066 2835.94 2066 2821.47 2071.48 2809.93 2082.43 2801.32 2091.98 2793.61 2104.67 2789.75 2120.52 2789.75 2129.4 2789.75 2137.41 2790.97 2144.54 2793.41 2150.34 2795.35 2154.46 2797.8 2156.89 2800.76 2159.4 2797.22 2162.88 2794.29 2167.33 2791.97 2171.88 2789.6 2176.24 2788.41 2180.41 2788.41Z" stroke="url(#stroke7)" stroke-width="5" stroke-linecap="butt" stroke-linejoin="round" stroke-miterlimit="10" fill="url(#fill8)" fill-rule="evenodd"/><text fill="#000000" fill-opacity="0" font-family="Arial,Arial_MSFontService,sans-serif" font-size="178.857" direction="ltr" writing-mode="lr-tb" x="2054.19" y="2944.91">g</text></g></g></svg>